<?xml version="1.0" encoding="UTF-8" standalone="no"?>
<svg
   width="32"
   height="32"
   version="1.1"
   id="svg2"
   sodipodi:docname="icon-hw.svg"
   inkscape:version="1.3 (0e150ed6c4, 2023-07-21)"
   xmlns:inkscape="http://www.inkscape.org/namespaces/inkscape"
   xmlns:sodipodi="http://sodipodi.sourceforge.net/DTD/sodipodi-0.dtd"
   xmlns="http://www.w3.org/2000/svg"
   xmlns:svg="http://www.w3.org/2000/svg">
  <sodipodi:namedview
     id="namedview2"
     pagecolor="#ffffff"
     bordercolor="#000000"
     borderopacity="0.25"
     inkscape:showpageshadow="2"
     inkscape:pageopacity="0.0"
     inkscape:pagecheckerboard="0"
     inkscape:deskcolor="#d1d1d1"
     inkscape:zoom="9.5459416"
     inkscape:cx="26.712923"
     inkscape:cy="27.865245"
     inkscape:window-width="1920"
     inkscape:window-height="1048"
     inkscape:window-x="1920"
     inkscape:window-y="32"
     inkscape:window-maximized="1"
     inkscape:current-layer="22-22-material-you" />
  <defs
     id="materia">
    <style
       id="current-color-scheme"
       type="text/css">&#10;   .ColorScheme-Background {color:#181818; } .ColorScheme-ButtonBackground { color:#343434; } .ColorScheme-Highlight { color:#4285f4; } .ColorScheme-Text { color:#dfdfdf; } .ColorScheme-ViewBackground { color:#242424; } .ColorScheme-NegativeText { color:#f44336; } .ColorScheme-PositiveText { color:#4caf50; } .ColorScheme-NeutralText { color:#ff9800; }&#10;  </style>
  </defs>
  <g
     id="22-22-material-you"
     transform="translate(27,5.0000005)"
     style="opacity:1;fill:currentColor"
     class="ColorScheme-Text">
    <rect
       style="opacity:0.00100002"
       width="22"
       height="22"
       x="5"
       y="5"
       id="rect1" />
    <path
       id="path1-9-2"
       style="fill:currentColor;stroke-width:0.888887"
       d="m 13.333334,11.555555 v 8.88889 h 1.777777 v -3.555556 h 1.777778 v 3.555556 h 1.777778 v -8.88889 h -1.777778 v 3.555557 H 15.111111 V 11.555555 H 13.333334 M 22.222221,8 C 23.199999,8 24,8.8 24,9.777778 V 22.222222 C 24,23.2 23.199999,24 22.222221,24 H 9.777777 C 8.799999,24 8,23.2 8,22.222222 V 9.777778 C 8,8.8 8.799999,8 9.777777,8 h 12.444444" />
  </g>
  <path
     style="stroke-width:1.33333"
     d="m -32.644235,15.114381 h 18.666666 a 2.6666667,2.6666667 0 0 1 2.666667,2.666667 v 18.666666 a 2.6666667,2.6666667 0 0 1 -2.666667,2.666667 h -18.666666 a 2.6666667,2.6666667 0 0 1 -2.666667,-2.666667 V 17.781048 a 2.6666667,2.6666667 0 0 1 2.666667,-2.666667 z"
     id="path2" />
  <path
     style="stroke-width:1.33333"
     d="m 51.466031,39.513408 v 13.333334 h 2.666667 v -5.333334 h 2.666666 v 5.333334 h 2.666667 V 39.513408 h -2.666667 v 5.333334 h -2.666666 v -5.333334 h -2.666667"
     id="path1" />
  <g
     id="material-you"
     class="ColorScheme-Text"
     style="opacity:1;fill:currentColor">
    <rect
       style="opacity:0.001"
       width="32"
       height="32"
       x="0"
       y="0"
       id="rect2" />
    <path
       id="path1-9"
       style="stroke-width:1.33333"
       d="M 12.000001,9.3333329 V 22.666667 h 2.666666 v -5.333334 h 2.666666 v 5.333334 H 20 V 9.3333329 H 17.333333 V 14.666667 H 14.666667 V 9.3333329 H 12.000001 M 25.333332,3.9999998 C 26.799999,3.9999998 28,5.1999997 28,6.6666667 V 25.333333 C 28,26.8 26.799999,28 25.333332,28 H 6.6666665 c -1.466667,0 -2.666666,-1.2 -2.666666,-2.666667 V 6.6666667 c 0,-1.466667 1.199999,-2.6666669 2.666666,-2.6666669 H 25.333332" />
  </g>
  <path
     id="path1-9-6"
     style="fill:currentColor;stroke-width:1.33333"
     d="m 76.569103,46.628352 v 13.333334 h 2.666667 v -5.333334 h 2.666666 v 5.333334 h 2.666667 V 46.628352 h -2.666667 v 5.333334 H 79.23577 v -5.333334 h -2.666667 m 13.333333,-5.333333 c 1.466667,0 2.666667,1.2 2.666667,2.666667 v 18.666666 c 0,1.466667 -1.2,2.666667 -2.666667,2.666667 H 71.23577 c -1.466667,0 -2.666667,-1.2 -2.666667,-2.666667 V 43.961686 c 0,-1.466667 1.2,-2.666667 2.666667,-2.666667 h 18.666666 m -15.999999,20 V 58.628352 H 71.23577 v 2.666667 h 2.666667 m 0,-6.666667 V 51.961686 H 71.23577 v 2.666666 h 2.666667 m 0,-6.666666 V 45.295019 H 71.23577 v 2.666667 h 2.666667 M 89.902436,61.295019 V 58.628352 H 87.23577 v 2.666667 h 2.666666 m 0,-6.666667 V 51.961686 H 87.23577 v 2.666666 h 2.666666 m 0,-6.666666 V 45.295019 H 87.23577 v 2.666667 z" />
</svg>
