<?xml version="1.0" encoding="UTF-8" standalone="no"?>
<svg
   width="32"
   height="32"
   version="1.1"
   id="svg2"
   sodipodi:docname="icon-blitter.svg"
   inkscape:version="1.3 (0e150ed6c4, 2023-07-21)"
   xmlns:inkscape="http://www.inkscape.org/namespaces/inkscape"
   xmlns:sodipodi="http://sodipodi.sourceforge.net/DTD/sodipodi-0.dtd"
   xmlns="http://www.w3.org/2000/svg"
   xmlns:svg="http://www.w3.org/2000/svg">
  <sodipodi:namedview
     id="namedview2"
     pagecolor="#ffffff"
     bordercolor="#000000"
     borderopacity="0.25"
     inkscape:showpageshadow="2"
     inkscape:pageopacity="0.0"
     inkscape:pagecheckerboard="0"
     inkscape:deskcolor="#d1d1d1"
     inkscape:zoom="6.75"
     inkscape:cx="25.777778"
     inkscape:cy="51.259259"
     inkscape:window-width="1920"
     inkscape:window-height="1048"
     inkscape:window-x="1920"
     inkscape:window-y="32"
     inkscape:window-maximized="1"
     inkscape:current-layer="22-22-material-you" />
  <defs
     id="materia">
    <style
       id="current-color-scheme"
       type="text/css">&#10;   .ColorScheme-Background {color:#181818; } .ColorScheme-ButtonBackground { color:#343434; } .ColorScheme-Highlight { color:#4285f4; } .ColorScheme-Text { color:#dfdfdf; } .ColorScheme-ViewBackground { color:#242424; } .ColorScheme-NegativeText { color:#f44336; } .ColorScheme-PositiveText { color:#4caf50; } .ColorScheme-NeutralText { color:#ff9800; }&#10;  </style>
  </defs>
  <g
     id="22-22-material-you"
     transform="translate(27,5.0000005)"
     style="opacity:1;fill:currentColor"
     class="ColorScheme-Text">
    <rect
       style="opacity:0.00100002"
       width="22"
       height="22"
       x="5"
       y="5"
       id="rect1" />
    <path
       id="path23-6"
       style="fill:currentColor;stroke-width:0.888887"
       d="M 22.222221,7.9999996 C 23.2,7.9999996 24,8.7999995 24,9.7777774 V 22.222222 C 24,23.2 23.2,24 22.222221,24 H 9.777777 C 8.799999,24 8,23.2 8,22.222222 V 9.7777774 C 8,8.7999995 8.799999,7.9999996 9.777777,7.9999996 h 12.444444 m -3.555554,6.6666674 v -1.333334 a 1.7777778,1.7777778 0 0 0 -1.777778,-1.777778 h -3.555556 v 8.888889 h 3.555556 a 1.7777778,1.7777778 0 0 0 1.777778,-1.777777 V 17.333333 C 18.666667,16.622223 18.044445,16 17.333333,16 c 0.711112,0 1.333334,-0.622223 1.333334,-1.333333 m -1.777778,4 h -1.777778 v -1.777778 h 1.777778 v 1.777778 m 0,-3.555556 h -1.777778 v -1.777778 h 1.777778 z" />
  </g>
  <path
     style="stroke-width:1.33333"
     d="m -32.644235,15.114381 h 18.666666 a 2.6666667,2.6666667 0 0 1 2.666667,2.666667 v 18.666666 a 2.6666667,2.6666667 0 0 1 -2.666667,2.666667 h -18.666666 a 2.6666667,2.6666667 0 0 1 -2.666667,-2.666667 V 17.781048 a 2.6666667,2.6666667 0 0 1 2.666667,-2.666667 z"
     id="path2" />
  <path
     style="stroke-width:1.33333"
     d="m 51.466031,39.513408 v 13.333334 h 2.666667 v -5.333334 h 2.666666 v 5.333334 h 2.666667 V 39.513408 h -2.666667 v 5.333334 h -2.666666 v -5.333334 h -2.666667"
     id="path1" />
  <g
     id="material-you"
     class="ColorScheme-Text"
     style="opacity:1;fill:currentColor">
    <rect
       style="opacity:0.001"
       width="32"
       height="32"
       x="0"
       y="0"
       id="rect2" />
    <path
       id="path23"
       style="stroke-width:1.33333"
       d="M 25.333332,3.9999999 C 26.8,3.9999999 28,5.1999997 28,6.6666669 V 25.333333 C 28,26.8 26.8,28 25.333332,28 H 6.6666659 c -1.466667,0 -2.666666,-1.2 -2.666666,-2.666667 V 6.6666669 c 0,-1.4666671 1.1999991,-2.666667 2.666666,-2.666667 H 25.333332 M 20,14 V 12 A 2.6666667,2.6666667 0 0 0 17.333333,9.3333335 H 12 V 22.666666 h 5.333333 A 2.6666667,2.6666667 0 0 0 20,20 v -2 c 0,-1.066666 -0.933333,-2 -2,-2 1.066667,0 2,-0.933334 2,-2 m -2.666667,6 h -2.666666 v -2.666667 h 2.666666 V 20 m 0,-5.333333 H 14.666667 V 12 h 2.666666 z" />
  </g>
  <path
     id="path1-9-6"
     style="fill:currentColor;stroke-width:1.33333"
     d="m 76.569103,46.628352 v 13.333334 h 2.666667 v -5.333334 h 2.666666 v 5.333334 h 2.666667 V 46.628352 h -2.666667 v 5.333334 H 79.23577 v -5.333334 h -2.666667 m 13.333333,-5.333333 c 1.466667,0 2.666667,1.2 2.666667,2.666667 v 18.666666 c 0,1.466667 -1.2,2.666667 -2.666667,2.666667 H 71.23577 c -1.466667,0 -2.666667,-1.2 -2.666667,-2.666667 V 43.961686 c 0,-1.466667 1.2,-2.666667 2.666667,-2.666667 h 18.666666 m -15.999999,20 V 58.628352 H 71.23577 v 2.666667 h 2.666667 m 0,-6.666667 V 51.961686 H 71.23577 v 2.666666 h 2.666667 m 0,-6.666666 V 45.295019 H 71.23577 v 2.666667 h 2.666667 M 89.902436,61.295019 V 58.628352 H 87.23577 v 2.666667 h 2.666666 m 0,-6.666667 V 51.961686 H 87.23577 v 2.666666 h 2.666666 m 0,-6.666666 V 45.295019 H 87.23577 v 2.666667 z" />
  <path
     style="stroke-width:1.33333"
     d="M -10.37037,58.74074 H 8.2962963 a 2.6666667,2.6666667 0 0 1 2.6666667,2.666667 V 80.074073 A 2.6666667,2.6666667 0 0 1 8.2962963,82.74074 H -10.37037 a 2.6666667,2.6666667 0 0 1 -2.666667,-2.666667 V 61.407407 a 2.6666667,2.6666667 0 0 1 2.666667,-2.666667 z"
     id="path3" />
  <path
     style="stroke-width:1.33333"
     d="m -5.0370373,64.074073 v 13.333334 h 8 V 74.74074 h -5.333333 v -2.666667 h 5.333333 v -2.666666 h -5.333333 V 66.74074 h 5.333333 v -2.666667 h -8"
     id="path1-6" />
</svg>
