<?xml version="1.0" encoding="UTF-8" standalone="no"?>
<svg
   width="32"
   height="32"
   version="1.1"
   id="svg2"
   sodipodi:docname="icon-idle.svg"
   inkscape:version="1.3 (0e150ed6c4, 2023-07-21)"
   xmlns:inkscape="http://www.inkscape.org/namespaces/inkscape"
   xmlns:sodipodi="http://sodipodi.sourceforge.net/DTD/sodipodi-0.dtd"
   xmlns="http://www.w3.org/2000/svg"
   xmlns:svg="http://www.w3.org/2000/svg">
  <sodipodi:namedview
     id="namedview2"
     pagecolor="#ffffff"
     bordercolor="#000000"
     borderopacity="0.25"
     inkscape:showpageshadow="2"
     inkscape:pageopacity="0.0"
     inkscape:pagecheckerboard="0"
     inkscape:deskcolor="#d1d1d1"
     inkscape:zoom="12.381336"
     inkscape:cx="14.618778"
     inkscape:cy="21.403183"
     inkscape:window-width="1920"
     inkscape:window-height="1048"
     inkscape:window-x="0"
     inkscape:window-y="32"
     inkscape:window-maximized="1"
     inkscape:current-layer="22-22-material-you" />
  <defs
     id="materia">
    <style
       id="current-color-scheme"
       type="text/css">&#10;   .ColorScheme-Background {color:#181818; } .ColorScheme-ButtonBackground { color:#343434; } .ColorScheme-Highlight { color:#4285f4; } .ColorScheme-Text { color:#dfdfdf; } .ColorScheme-ViewBackground { color:#242424; } .ColorScheme-NegativeText { color:#f44336; } .ColorScheme-PositiveText { color:#4caf50; } .ColorScheme-NeutralText { color:#ff9800; }&#10;  </style>
  </defs>
  <g
     id="22-22-material-you"
     transform="translate(27,5.0000005)"
     style="opacity:1;fill:currentColor"
     class="ColorScheme-Text">
    <rect
       style="opacity:0.00100002"
       width="22"
       height="22"
       x="4.7904868"
       y="5"
       id="rect1" />
    <path
       id="path7-0"
       style="fill:currentColor;stroke-width:0.555554"
       d="M 9.5678313,8 C 8.5989454,8 7.7904874,8.799567 7.7904874,9.777344 V 22.222656 A 1.7777779,1.7777779 0 0 0 9.5678313,24 H 22.013143 c 0.986665,0 1.777343,-0.799568 1.777343,-1.777344 V 9.777344 A 1.7777779,1.7777779 0 0 0 22.013143,8 Z m 6.8893227,2.666667 h 5.333332 v 1.777344 L 18.78658,16 h 3.003906 v 1.777344 H 16.457154 V 16 l 3.01302,-3.555989 h -3.01302 z M 9.7904873,14 H 15.12382 v 1.777344 l -3.003906,3.555989 h 3.003906 v 1.777344 H 9.7904873 V 19.333333 L 12.803508,15.777344 H 9.7904873 Z" />
  </g>
  <g
     id="material-you"
     class="ColorScheme-Text"
     style="opacity:1;fill:currentColor"
     transform="translate(35.302961,-8.4852813)">
    <rect
       style="opacity:0.00100002"
       width="32"
       height="32"
       x="-35.302959"
       y="8.485281"
       id="rect2" />
    <path
       id="path7"
       style="stroke-width:0.833331"
       d="M -28.636945 12.485281 C -30.090274 12.485281 -31.302961 13.684632 -31.302961 15.151297 L -31.302961 33.819266 A 2.6666668 2.6666668 0 0 0 -28.636945 36.485281 L -9.9689766 36.485281 C -8.4889791 36.485281 -7.302961 35.285929 -7.302961 33.819266 L -7.302961 15.151297 A 2.6666668 2.6666668 0 0 0 -9.9689766 12.485281 L -28.636945 12.485281 z M -18.302961 16.485281 L -10.302961 16.485281 L -10.302961 19.151297 L -14.80882 24.485281 L -10.302961 24.485281 L -10.302961 27.151297 L -18.302961 27.151297 L -18.302961 24.485281 L -13.78343 19.151297 L -18.302961 19.151297 L -18.302961 16.485281 z M -28.302961 21.485281 L -20.302961 21.485281 L -20.302961 24.151297 L -24.80882 29.485281 L -20.302961 29.485281 L -20.302961 32.151297 L -28.302961 32.151297 L -28.302961 29.485281 L -23.78343 24.151297 L -28.302961 24.151297 L -28.302961 21.485281 z " />
  </g>
</svg>
