<?xml version="1.0" encoding="UTF-8" standalone="no"?>
<svg
   width="32"
   height="32"
   version="1.1"
   id="svg2"
   sodipodi:docname="icon-3d.svg"
   inkscape:version="1.3 (0e150ed6c4, 2023-07-21)"
   xmlns:inkscape="http://www.inkscape.org/namespaces/inkscape"
   xmlns:sodipodi="http://sodipodi.sourceforge.net/DTD/sodipodi-0.dtd"
   xmlns="http://www.w3.org/2000/svg"
   xmlns:svg="http://www.w3.org/2000/svg">
  <sodipodi:namedview
     id="namedview2"
     pagecolor="#ffffff"
     bordercolor="#000000"
     borderopacity="0.25"
     inkscape:showpageshadow="2"
     inkscape:pageopacity="0.0"
     inkscape:pagecheckerboard="0"
     inkscape:deskcolor="#d1d1d1"
     inkscape:zoom="9.5459416"
     inkscape:cx="26.712923"
     inkscape:cy="27.760488"
     inkscape:window-width="1920"
     inkscape:window-height="1048"
     inkscape:window-x="1920"
     inkscape:window-y="32"
     inkscape:window-maximized="1"
     inkscape:current-layer="22-22-material-you" />
  <defs
     id="materia">
    <style
       id="current-color-scheme"
       type="text/css">&#10;   .ColorScheme-Background {color:#181818; } .ColorScheme-ButtonBackground { color:#343434; } .ColorScheme-Highlight { color:#4285f4; } .ColorScheme-Text { color:#dfdfdf; } .ColorScheme-ViewBackground { color:#242424; } .ColorScheme-NegativeText { color:#f44336; } .ColorScheme-PositiveText { color:#4caf50; } .ColorScheme-NeutralText { color:#ff9800; }&#10;  </style>
  </defs>
  <g
     id="22-22-material-you"
     transform="translate(27,5.0000005)"
     style="opacity:1;fill:currentColor"
     class="ColorScheme-Text">
    <rect
       style="opacity:0.00100002"
       width="22"
       height="22"
       x="4.7904868"
       y="5"
       id="rect1" />
    <path
       id="path11-1"
       style="fill:currentColor;stroke-width:0.888887"
       d="M 9.5678307,8 C 8.5989417,8 7.7904867,8.7995665 7.7904867,9.7773425 V 22.222656 A 1.7777779,1.7777779 0 0 0 9.5678307,24 H 22.013143 c 0.986666,0 1.777344,-0.799567 1.777344,-1.777344 V 9.7773426 A 1.7777779,1.7777779 0 0 0 22.013143,8 Z m 0,3.555989 H 13.12382 c 0.986642,0 1.777344,0.790703 1.777344,1.777344 v 1.333334 A 1.3332999,1.3332999 0 0 1 13.567831,16 c 0.746647,0 1.333333,0.595575 1.333333,1.333333 v 1.333334 c 0,0.98664 -0.790702,1.777343 -1.777344,1.777343 H 9.5678307 V 18.666667 H 13.12382 V 16.889323 H 11.346476 V 15.110677 H 13.12382 V 13.333333 H 9.5678307 Z m 7.1119793,0 h 3.554688 a 1.7777333,1.7777333 0 0 1 1.778645,1.777344 v 5.333334 A 1.7777333,1.7777333 0 0 1 20.234498,20.44401 H 16.67981 Z m 1.777344,1.777344 v 5.333334 h 1.777344 v -5.333334 z" />
  </g>
  <g
     id="material-you"
     class="ColorScheme-Text"
     style="opacity:1;fill:currentColor"
     transform="translate(35.302961,-8.4852813)">
    <rect
       style="opacity:0.00100002"
       width="32"
       height="32"
       x="-35.302959"
       y="8.485281"
       id="rect2" />
    <path
       id="path11"
       style="stroke-width:1.33333"
       d="m -28.636945,12.485281 c -1.453333,0 -2.666016,1.19935 -2.666016,2.666016 v 18.667969 a 2.6666668,2.6666668 0 0 0 2.666016,2.666016 h 18.6679684 c 1.4799985,0 2.6660156,-1.199351 2.6660156,-2.666016 V 15.151297 a 2.6666668,2.6666668 0 0 0 -2.6660156,-2.666016 z m 0,5.333984 h 5.333984 c 1.479962,0 2.666016,1.186055 2.666016,2.666016 v 2 a 1.9999499,1.9999499 0 0 1 -2,2.000001 c 1.119971,0 2,0.893362 2,2 v 2 c 0,1.479961 -1.186054,2.666015 -2.666016,2.666015 h -5.333984 v -2.666015 h 5.333984 v -2.666016 h -2.666016 v -2.667969 h 2.666016 v -2.666016 h -5.333984 z m 10.667968,0 h 5.332032 a 2.6665999,2.6665999 0 0 1 2.6679684,2.666016 v 8.000001 a 2.6665999,2.6665999 0 0 1 -2.6679684,2.666015 h -5.332032 z m 2.666016,2.666016 v 8.000001 h 2.666016 v -8.000001 z" />
  </g>
</svg>
