<?xml version="1.0" encoding="UTF-8" standalone="no"?>
<svg
   width="32"
   height="32"
   version="1.1"
   id="svg2"
   sodipodi:docname="icon-hve.svg"
   inkscape:version="1.3 (0e150ed6c4, 2023-07-21)"
   xmlns:inkscape="http://www.inkscape.org/namespaces/inkscape"
   xmlns:sodipodi="http://sodipodi.sourceforge.net/DTD/sodipodi-0.dtd"
   xmlns="http://www.w3.org/2000/svg"
   xmlns:svg="http://www.w3.org/2000/svg">
  <sodipodi:namedview
     id="namedview2"
     pagecolor="#ffffff"
     bordercolor="#000000"
     borderopacity="0.25"
     inkscape:showpageshadow="2"
     inkscape:pageopacity="0.0"
     inkscape:pagecheckerboard="0"
     inkscape:deskcolor="#d1d1d1"
     inkscape:zoom="4.7729708"
     inkscape:cx="21.475095"
     inkscape:cy="56.359029"
     inkscape:window-width="1920"
     inkscape:window-height="1048"
     inkscape:window-x="1920"
     inkscape:window-y="32"
     inkscape:window-maximized="1"
     inkscape:current-layer="22-22-material-you" />
  <defs
     id="materia">
    <style
       id="current-color-scheme"
       type="text/css">&#10;   .ColorScheme-Background {color:#181818; } .ColorScheme-ButtonBackground { color:#343434; } .ColorScheme-Highlight { color:#4285f4; } .ColorScheme-Text { color:#dfdfdf; } .ColorScheme-ViewBackground { color:#242424; } .ColorScheme-NegativeText { color:#f44336; } .ColorScheme-PositiveText { color:#4caf50; } .ColorScheme-NeutralText { color:#ff9800; }&#10;  </style>
  </defs>
  <g
     id="22-22-material-you"
     transform="translate(27,5.0000005)"
     style="opacity:1;fill:currentColor"
     class="ColorScheme-Text">
    <path
       id="path4-5-6"
       style="fill:currentColor;stroke-width:0.888887"
       d="m 16.666667,11.555333 v 8.88889 H 22 V 18.666445 H 18.444445 V 16.888667 H 22 V 15.110889 H 18.444445 V 13.333111 H 22 V 11.555333 H 16.666667 M 10,11.555567 l 1.777773,8.888866 h 1.777774 L 15.33332,11.555567 H 13.555547 L 12.66666,16 11.777773,11.555567 H 10 M 22.222221,8 C 23.199999,8 24,8.8 24,9.777778 V 22.222222 C 24,23.2 23.199999,24 22.222221,24 H 9.777777 C 8.799999,24 8,23.2 8,22.222222 V 9.777778 C 8,8.8 8.799999,8 9.777777,8 h 12.444444" />
    <rect
       style="opacity:0.00100002"
       width="22"
       height="22"
       x="5"
       y="5"
       id="rect1" />
  </g>
  <path
     style="stroke-width:1.33333"
     d="m -32.644235,15.114381 h 18.666666 a 2.6666667,2.6666667 0 0 1 2.666667,2.666667 v 18.666666 a 2.6666667,2.6666667 0 0 1 -2.666667,2.666667 h -18.666666 a 2.6666667,2.6666667 0 0 1 -2.666667,-2.666667 V 17.781048 a 2.6666667,2.6666667 0 0 1 2.666667,-2.666667 z"
     id="path2" />
  <path
     style="stroke-width:1.33333"
     d="m 51.466031,39.513408 v 13.333334 h 2.666667 v -5.333334 h 2.666666 v 5.333334 h 2.666667 V 39.513408 h -2.666667 v 5.333334 h -2.666666 v -5.333334 h -2.666667"
     id="path1" />
  <g
     id="material-you"
     class="ColorScheme-Text"
     style="opacity:1;fill:currentColor">
    <rect
       style="opacity:0.001"
       width="32"
       height="32"
       x="0"
       y="0"
       id="rect2" />
    <path
       id="path4-5"
       style="fill:currentColor;stroke-width:1.33333"
       d="m 17,9.333 v 13.333334 h 8 V 19.999667 H 19.666667 V 17.333 H 25 V 14.666334 H 19.666667 V 11.999667 H 25 V 9.333 h -8 m -10,3.5e-4 2.66666,13.3333 h 2.66666 L 14.99998,9.33335 H 12.33332 L 10.99999,16 9.66666,9.33335 H 7 M 25.333332,4.0000002 C 26.799999,4.0000002 28,5.2000001 28,6.6666671 V 25.333333 C 28,26.8 26.799999,28 25.333332,28 H 6.666666 C 5.199999,28 4,26.8 4,25.333333 V 6.6666671 C 4,5.2000001 5.199999,4.0000002 6.666666,4.0000002 h 18.666666" />
  </g>
  <path
     id="path1-9-6"
     style="fill:currentColor;stroke-width:1.33333"
     d="m 76.569103,46.628352 v 13.333334 h 2.666667 v -5.333334 h 2.666666 v 5.333334 h 2.666667 V 46.628352 h -2.666667 v 5.333334 H 79.23577 v -5.333334 h -2.666667 m 13.333333,-5.333333 c 1.466667,0 2.666667,1.2 2.666667,2.666667 v 18.666666 c 0,1.466667 -1.2,2.666667 -2.666667,2.666667 H 71.23577 c -1.466667,0 -2.666667,-1.2 -2.666667,-2.666667 V 43.961686 c 0,-1.466667 1.2,-2.666667 2.666667,-2.666667 h 18.666666 m -15.999999,20 V 58.628352 H 71.23577 v 2.666667 h 2.666667 m 0,-6.666667 V 51.961686 H 71.23577 v 2.666666 h 2.666667 m 0,-6.666666 V 45.295019 H 71.23577 v 2.666667 h 2.666667 M 89.902436,61.295019 V 58.628352 H 87.23577 v 2.666667 h 2.666666 m 0,-6.666667 V 51.961686 H 87.23577 v 2.666666 h 2.666666 m 0,-6.666666 V 45.295019 H 87.23577 v 2.666667 z" />
</svg>
