<?xml version="1.0" encoding="UTF-8" standalone="no"?>
<svg
   width="32"
   height="32"
   version="1.1"
   id="svg2"
   sodipodi:docname="icon.svg"
   inkscape:version="1.3 (0e150ed6c4, 2023-07-21)"
   xmlns:inkscape="http://www.inkscape.org/namespaces/inkscape"
   xmlns:sodipodi="http://sodipodi.sourceforge.net/DTD/sodipodi-0.dtd"
   xmlns="http://www.w3.org/2000/svg"
   xmlns:svg="http://www.w3.org/2000/svg">
  <sodipodi:namedview
     id="namedview2"
     pagecolor="#ffffff"
     bordercolor="#000000"
     borderopacity="0.25"
     inkscape:showpageshadow="2"
     inkscape:pageopacity="0.0"
     inkscape:pagecheckerboard="0"
     inkscape:deskcolor="#d1d1d1"
     inkscape:zoom="9.5459416"
     inkscape:cx="26.712923"
     inkscape:cy="27.760488"
     inkscape:window-width="1920"
     inkscape:window-height="1048"
     inkscape:window-x="1920"
     inkscape:window-y="32"
     inkscape:window-maximized="1"
     inkscape:current-layer="22-22-material-you" />
  <defs
     id="materia">
    <style
       id="current-color-scheme"
       type="text/css">&#10;   .ColorScheme-Background {color:#181818; } .ColorScheme-ButtonBackground { color:#343434; } .ColorScheme-Highlight { color:#4285f4; } .ColorScheme-Text { color:#dfdfdf; } .ColorScheme-ViewBackground { color:#242424; } .ColorScheme-NegativeText { color:#f44336; } .ColorScheme-PositiveText { color:#4caf50; } .ColorScheme-NeutralText { color:#ff9800; }&#10;  </style>
  </defs>
  <g
     id="22-22-material-you"
     transform="translate(27,5.0000005)"
     style="opacity:1;fill:currentColor"
     class="ColorScheme-Text">
    <rect
       style="opacity:0.00100002"
       width="22"
       height="22"
       x="4.7904868"
       y="5"
       id="rect1" />
    <path
       d="M 9.5682647,8 H 22.012709 a 1.7777778,1.7777778 0 0 1 1.777778,1.777778 V 22.222222 A 1.7777778,1.7777778 0 0 1 22.012709,24 H 9.5682647 A 1.7777778,1.7777778 0 0 1 7.7904867,22.222222 V 9.777778 A 1.7777778,1.7777778 0 0 1 9.5682647,8 m 7.1111113,8.888889 v -5.333334 h -1.777778 v 5.333334 h 1.777778 m 0,3.555556 v -1.777778 h -1.777778 v 1.777778 z"
       id="path1-9"
       style="fill:currentColor;stroke-width:0.888887" />
  </g>
  <g
     id="material-you"
     class="ColorScheme-Text"
     style="opacity:1;fill:currentColor"
     transform="translate(35.302961,-8.4852813)">
    <rect
       style="opacity:0.00100002"
       width="32"
       height="32"
       x="-35.302959"
       y="8.485281"
       id="rect2" />
    <path
       d="m -28.636292,12.485281 h 18.6666659 a 2.6666667,2.6666667 0 0 1 2.6666667,2.666667 v 18.666666 a 2.6666667,2.6666667 0 0 1 -2.6666667,2.666667 H -28.636292 a 2.6666667,2.6666667 0 0 1 -2.666667,-2.666667 V 15.151948 a 2.6666667,2.6666667 0 0 1 2.666667,-2.666667 m 10.666666,13.333333 v -8 h -2.666666 v 8 h 2.666666 m 0,5.333334 v -2.666667 h -2.666666 v 2.666667 z"
       id="path1"
       style="stroke-width:1.33333" />
  </g>
</svg>
